<svg xmlns="http://www.w3.org/2000/svg">
  <defs>
    <!-- Water drop - Hydrology group -->
    <symbol id="icon-water" viewBox="0 0 24 24">
      <path d="M12 2C12 2 5 10.5 5 15a7 7 0 0014 0C19 10.5 12 2 12 2z" fill="#2196f3"/>
    </symbol>
    <!-- Ship - Maritime group -->
    <symbol id="icon-ship" viewBox="0 0 24 24">
      <path d="M20 21c-1.39 0-2.78-.47-4-1.32-2.44 1.71-5.56 1.71-8 0C6.78 20.53 5.39 21 4 21H2v2h2c1.38 0 2.74-.35 4-.99 2.52 1.29 5.48 1.29 8 0 1.26.65 2.62.99 4 .99h2v-2h-2zM3.95 19H4c1.6 0 3.02-.88 4-2 .98 1.12 2.4 2 4 2s3.02-.88 4-2c.98 1.12 2.4 2 4 2h.05l1.89-6.68c.08-.26.06-.54-.06-.78s-.34-.42-.6-.5L20 10.62V6c0-1.1-.9-2-2-2h-3V1H9v3H6c-1.1 0-2 .9-2 2v4.62l-1.29.42c-.26.08-.48.26-.6.5s-.13.52-.05.78L3.95 19zM6 6h12v3.97L12 8 6 9.97V6z" fill="#1565c0"/>
    </symbol>
    <!-- Cloud lightning - Weather group -->
    <symbol id="icon-weather" viewBox="0 0 24 24">
      <path d="M17.92 7.02C17.45 4.18 14.97 2 12 2 9.82 2 7.83 3.18 6.78 5.06 4.09 5.41 2 7.74 2 10.5 2 13.53 4.47 16 7.5 16h10c2.48 0 4.5-2.02 4.5-4.5 0-2.34-1.79-4.27-4.08-4.48z" fill="#78909c"/>
      <path d="M11 17l-4 6h3l-1 4 5-7h-3l2-3z" fill="#ffc107"/>
    </symbol>
    <!-- Airplane - Transportation group -->
    <symbol id="icon-transport" viewBox="0 0 24 24">
      <path d="M21 16v-2l-8-5V3.5c0-.83-.67-1.5-1.5-1.5S10 2.67 10 3.5V9l-8 5v2l8-2.5V19l-2 1.5V22l3.5-1 3.5 1v-1.5L13 19v-5.5l8 2.5z" fill="#546e7a"/>
    </symbol>
    <!-- Lightning bolt - Energy group -->
    <symbol id="icon-energy" viewBox="0 0 24 24">
      <path d="M7 2v11h3v9l7-12h-4l4-8z" fill="#ff9800"/>
    </symbol>
    <!-- Seismograph - Earthquakes group -->
    <symbol id="icon-seismo" viewBox="0 0 24 24">
      <path d="M2 17h2l2-4 2 7 3-10 2 5 1.5-3 1.5 2 2-4h4" stroke="#e53935" stroke-width="2" fill="none" stroke-linecap="round" stroke-linejoin="round"/>
      <circle cx="19" cy="12" r="3" fill="none" stroke="#e53935" stroke-width="1.5"/>
    </symbol>
    <!-- Broadcast - Social/Media group -->
    <symbol id="icon-broadcast" viewBox="0 0 24 24">
      <path d="M12 12c-1.1 0-2-.9-2-2s.9-2 2-2 2 .9 2 2-.9 2-2 2zm6-2c0-3.31-2.69-6-6-6s-6 2.69-6 6c0 2.22 1.21 4.15 3 5.19l1-1.74c-1.19-.7-2-1.97-2-3.45 0-2.21 1.79-4 4-4s4 1.79 4 4c0 1.48-.81 2.75-2 3.45l1 1.74c1.79-1.04 3-2.97 3-5.19zM12 2C6.48 2 2 6.48 2 12c0 3.7 2.01 6.92 4.99 8.65l1-1.73C5.61 17.53 4 14.96 4 12c0-4.42 3.58-8 8-8s8 3.58 8 8c0 2.96-1.61 5.53-4 6.92l1 1.73c2.99-1.73 5-4.95 5-8.65 0-5.52-4.48-10-10-10z" fill="#7c4dff"/>
    </symbol>

    <!-- Source logos -->
    <!-- NOAA simplified emblem -->
    <symbol id="logo-noaa" viewBox="0 0 40 40">
      <circle cx="20" cy="20" r="18" fill="#003087" stroke="#fff" stroke-width="1"/>
      <text x="20" y="25" text-anchor="middle" font-family="Arial,sans-serif" font-size="10" font-weight="bold" fill="white">NOAA</text>
    </symbol>
    <!-- USGS triangle -->
    <symbol id="logo-usgs" viewBox="0 0 40 40">
      <polygon points="20,4 36,36 4,36" fill="#2e7d32" stroke="#fff" stroke-width="1"/>
      <text x="20" y="30" text-anchor="middle" font-family="Arial,sans-serif" font-size="7" font-weight="bold" fill="white">USGS</text>
    </symbol>
    <!-- Bluesky butterfly -->
    <symbol id="logo-bluesky" viewBox="0 0 40 40">
      <circle cx="20" cy="20" r="18" fill="#0085ff"/>
      <path d="M20 12c-3 3-7 6.5-7 9.5 0 2.5 2 3.5 3.5 3 -0.5 2-2.5 3-2.5 3h12s-2-1-2.5-3c1.5.5 3.5-.5 3.5-3 0-3-4-6.5-7-9.5z" fill="white"/>
    </symbol>
    <!-- RSS icon -->
    <symbol id="logo-rss" viewBox="0 0 40 40">
      <rect x="2" y="2" width="36" height="36" rx="6" fill="#f26522"/>
      <circle cx="11" cy="29" r="3" fill="white"/>
      <path d="M8 18c8 0 14 6 14 14" stroke="white" stroke-width="3" fill="none" stroke-linecap="round"/>
      <path d="M8 10c12 0 22 10 22 22" stroke="white" stroke-width="3" fill="none" stroke-linecap="round"/>
    </symbol>
    <!-- DWD -->
    <symbol id="logo-dwd" viewBox="0 0 40 40">
      <circle cx="20" cy="20" r="18" fill="#004a93"/>
      <text x="20" y="25" text-anchor="middle" font-family="Arial,sans-serif" font-size="9" font-weight="bold" fill="white">DWD</text>
    </symbol>
    <!-- ENTSO-E -->
    <symbol id="logo-entsoe" viewBox="0 0 40 40">
      <circle cx="20" cy="20" r="18" fill="#1a237e"/>
      <text x="20" y="18" text-anchor="middle" font-family="Arial,sans-serif" font-size="6" font-weight="bold" fill="#fdd835">ENTSO</text>
      <text x="20" y="28" text-anchor="middle" font-family="Arial,sans-serif" font-size="8" font-weight="bold" fill="#fdd835">-E</text>
    </symbol>
    <!-- GTFS -->
    <symbol id="logo-gtfs" viewBox="0 0 40 40">
      <circle cx="20" cy="20" r="18" fill="#0d47a1"/>
      <path d="M12 28V16h4v12h-4zm6-16h4v16h-4zm6 6h4v10h-4z" fill="white"/>
    </symbol>
    <!-- Generic agency badge template (used with country flag colors) -->
    <!-- Kystverket -->
    <symbol id="logo-kystverket" viewBox="0 0 40 40">
      <circle cx="20" cy="20" r="18" fill="#ba0c2f"/>
      <text x="20" y="18" text-anchor="middle" font-family="Arial,sans-serif" font-size="5" fill="white">KYST</text>
      <text x="20" y="27" text-anchor="middle" font-family="Arial,sans-serif" font-size="5" fill="white">🇳🇴</text>
    </symbol>
    <!-- AISStream -->
    <symbol id="logo-aisstream" viewBox="0 0 40 40">
      <circle cx="20" cy="20" r="18" fill="#1a237e"/>
      <text x="20" y="18" text-anchor="middle" font-family="Arial,sans-serif" font-size="6" font-weight="bold" fill="#4fc3f7">AIS</text>
      <path d="M14 24 l6 -4 l6 4" stroke="#4fc3f7" stroke-width="1.5" fill="none"/>
      <path d="M11 27 l9 -5 l9 5" stroke="#4fc3f7" stroke-width="1.5" fill="none"/>
    </symbol>
    <!-- Digitraffic -->
    <symbol id="logo-digitraffic" viewBox="0 0 40 40">
      <circle cx="20" cy="20" r="18" fill="#002f6c"/>
      <text x="20" y="17" text-anchor="middle" font-family="Arial,sans-serif" font-size="5" fill="white">DIGI</text>
      <text x="20" y="26" text-anchor="middle" font-family="Arial,sans-serif" font-size="5" fill="white">🇫🇮</text>
    </symbol>
    <!-- Mode-S -->
    <symbol id="logo-modes" viewBox="0 0 40 40">
      <circle cx="20" cy="20" r="18" fill="#37474f"/>
      <path d="M26 16v-2l-8-5V3.5c0-.5-.5-1-1-1s-1 .5-1 1V9l-6 4v2l6-2v5l-2 1.5V22l2.5-1 2.5 1v-1.5L17 19v-5l6 2z" fill="white" transform="translate(3,3) scale(0.85)"/>
    </symbol>
    <!-- Pegelonline / WSV -->
    <symbol id="logo-pegelonline" viewBox="0 0 40 40">
      <circle cx="20" cy="20" r="18" fill="#0d47a1"/>
      <text x="20" y="18" text-anchor="middle" font-family="Arial,sans-serif" font-size="5" fill="white">WSV</text>
      <text x="20" y="27" text-anchor="middle" font-family="Arial,sans-serif" font-size="5" fill="white">🇩🇪</text>
    </symbol>
    <!-- UK EA -->
    <symbol id="logo-ukea" viewBox="0 0 40 40">
      <circle cx="20" cy="20" r="18" fill="#00796b"/>
      <text x="20" y="18" text-anchor="middle" font-family="Arial,sans-serif" font-size="6" font-weight="bold" fill="white">EA</text>
      <text x="20" y="27" text-anchor="middle" font-family="Arial,sans-serif" font-size="5" fill="white">🇬🇧</text>
    </symbol>
    <!-- ČHMÚ -->
    <symbol id="logo-chmi" viewBox="0 0 40 40">
      <circle cx="20" cy="20" r="18" fill="#1565c0"/>
      <text x="20" y="18" text-anchor="middle" font-family="Arial,sans-serif" font-size="5" fill="white">ČHMÚ</text>
      <text x="20" y="27" text-anchor="middle" font-family="Arial,sans-serif" font-size="5" fill="white">🇨🇿</text>
    </symbol>
    <!-- IMGW -->
    <symbol id="logo-imgw" viewBox="0 0 40 40">
      <circle cx="20" cy="20" r="18" fill="#c62828"/>
      <text x="20" y="18" text-anchor="middle" font-family="Arial,sans-serif" font-size="6" font-weight="bold" fill="white">IMGW</text>
      <text x="20" y="27" text-anchor="middle" font-family="Arial,sans-serif" font-size="5" fill="white">🇵🇱</text>
    </symbol>
    <!-- SMHI -->
    <symbol id="logo-smhi" viewBox="0 0 40 40">
      <circle cx="20" cy="20" r="18" fill="#0d47a1"/>
      <text x="20" y="18" text-anchor="middle" font-family="Arial,sans-serif" font-size="6" font-weight="bold" fill="white">SMHI</text>
      <text x="20" y="27" text-anchor="middle" font-family="Arial,sans-serif" font-size="5" fill="white">🇸🇪</text>
    </symbol>
    <!-- Hub'Eau -->
    <symbol id="logo-hubeau" viewBox="0 0 40 40">
      <circle cx="20" cy="20" r="18" fill="#1565c0"/>
      <text x="20" y="16" text-anchor="middle" font-family="Arial,sans-serif" font-size="5" fill="white">Hub</text>
      <text x="20" y="24" text-anchor="middle" font-family="Arial,sans-serif" font-size="5" fill="white">Eau</text>
      <text x="20" y="32" text-anchor="middle" font-family="Arial,sans-serif" font-size="5" fill="white">🇫🇷</text>
    </symbol>
    <!-- RWS -->
    <symbol id="logo-rws" viewBox="0 0 40 40">
      <circle cx="20" cy="20" r="18" fill="#ff6f00"/>
      <text x="20" y="18" text-anchor="middle" font-family="Arial,sans-serif" font-size="7" font-weight="bold" fill="white">RWS</text>
      <text x="20" y="27" text-anchor="middle" font-family="Arial,sans-serif" font-size="5" fill="white">🇳🇱</text>
    </symbol>
    <!-- VMM -->
    <symbol id="logo-vmm" viewBox="0 0 40 40">
      <circle cx="20" cy="20" r="18" fill="#2e7d32"/>
      <text x="20" y="18" text-anchor="middle" font-family="Arial,sans-serif" font-size="7" font-weight="bold" fill="white">VMM</text>
      <text x="20" y="27" text-anchor="middle" font-family="Arial,sans-serif" font-size="5" fill="white">🇧🇪</text>
    </symbol>
    <!-- German Waters -->
    <symbol id="logo-germanwaters" viewBox="0 0 40 40">
      <circle cx="20" cy="20" r="18" fill="#37474f"/>
      <path d="M8 22 Q14 18 20 22 Q26 26 32 22" stroke="#42a5f5" stroke-width="2" fill="none"/>
      <path d="M8 18 Q14 14 20 18 Q26 22 32 18" stroke="#42a5f5" stroke-width="2" fill="none"/>
      <text x="20" y="33" text-anchor="middle" font-family="Arial,sans-serif" font-size="5" fill="white">🇩🇪</text>
    </symbol>
    <!-- Microsoft Fabric -->
    <symbol id="logo-fabric" viewBox="0 0 40 40">
      <rect x="2" y="2" width="36" height="36" rx="8" fill="#742774"/>
      <path d="M12 12h7v7h-7zm9 0h7v7h-7zm-9 9h7v7h-7zm9 0h7v7h-7z" fill="white" opacity="0.9"/>
    </symbol>
  </defs>
</svg>
